<svg width="256" height="53" viewBox="0 0 256 53" fill="none" xmlns="http://www.w3.org/2000/svg">
                    <g clip-path="url(#clip0_2323_32514)">
                        <path d="M46.7047 33.2313C45.5367 28.711 39.6877 9.03627 24.5335 0.072629C24.1151 -0.175174 23.6313 0.26489 23.8492 0.692137C26.1461 5.19105 32.6445 19.632 29.7244 33.9191C29.7244 33.9191 37.7395 30.4328 46.0553 33.791C46.4258 33.9405 46.8093 33.6158 46.7091 33.2355L46.7047 33.2313Z" fill="#01E59B" />
                        <path d="M20.014 45.2156C24.4683 27.6728 17.9176 12.4586 17.765 12.1168C13.8642 8.89532 7.9891 5.02019 0.614669 3.04203C0.130885 2.91386 -0.209071 3.50773 0.157036 3.84526C5.28253 8.57061 21.4522 26.2287 10.1901 52.3378C10.0027 52.7693 10.4995 53.1752 10.8962 52.9189C14.9626 50.3297 27.2184 43.8099 37.9575 51.2056C38.3018 51.4406 38.7682 51.1586 38.7072 50.7484C38.45 48.9326 37.8747 45.19 37.0379 41.7848C27.0572 40.1185 20.014 45.2156 20.014 45.2156Z" fill="#01E59B" />
                        <path d="M27.9985 36.0554C31.3589 21.482 27.0092 11.2409 26.9961 11.2024C23.3612 7.8998 17.9742 3.44788 13.6855 1.76453C13.2279 1.58509 12.8269 2.11487 13.1276 2.4994C16.2962 6.51552 25.3443 20.2131 22.2803 42.5324C22.2803 42.5324 32.5749 37.1748 42.9479 42.9725C43.2966 43.169 43.7237 42.8871 43.667 42.4983C43.4142 40.7679 42.7256 36.9825 41.1653 33.2697C33.0499 32.5733 27.9985 36.0597 27.9985 36.0597V36.0554Z" fill="#01E59B" />
                        <path d="M74.9341 14.6802V18.0939C74.9341 18.7348 74.4024 19.256 73.7486 19.256H65.7335V43.4211H58.8647V19.256H50.8496C50.1958 19.256 49.6641 18.7348 49.6641 18.0939V14.6802C49.6641 14.0393 50.1958 13.5181 50.8496 13.5181H73.7486C74.4024 13.5181 74.9341 14.0393 74.9341 14.6802Z" fill="#01E59B" />
                        <path d="M90.0579 25.246C89.9271 25.8826 89.2908 26.2885 88.6414 26.1518C88.3581 26.092 88.0617 26.0279 87.7436 25.9681C86.9503 25.81 86.1004 25.7288 85.1895 25.7288C84.7798 25.7288 84.2873 25.7673 83.7164 25.8356C83.1454 25.9083 82.7096 25.9852 82.4176 26.0749V43.4254H75.8582V21.9306C77.0306 21.529 78.4165 21.1487 80.0204 20.7856C81.62 20.4267 83.4026 20.2472 85.3682 20.2472C85.7212 20.2472 86.144 20.2686 86.6452 20.3113C87.1421 20.3541 87.6433 20.4139 88.1402 20.4822C88.637 20.5549 89.1382 20.6403 89.6351 20.7428C89.6874 20.7557 89.7441 20.7642 89.792 20.777C90.424 20.9137 90.825 21.5247 90.6942 22.1442L90.0492 25.246H90.0579Z" fill="#01E59B" />
                        <path d="M102.318 20.1191C104.253 20.1191 105.87 20.3327 107.16 20.7642C108.45 21.1957 109.488 21.8152 110.264 22.6185C111.039 23.426 111.593 24.4044 111.915 25.5536C112.238 26.7029 112.399 27.9847 112.399 29.3946V42.7717C111.458 42.9725 110.155 43.2118 108.481 43.4852C106.807 43.7586 104.785 43.8954 102.405 43.8954C100.91 43.8954 99.5506 43.7672 98.3346 43.5066C97.1186 43.246 96.0682 42.823 95.1878 42.2334C94.3074 41.6438 93.6318 40.8747 93.1611 39.9262C92.6904 38.9778 92.4551 37.8114 92.4551 36.4314C92.4551 35.0513 92.7253 33.9875 93.2701 33.0647C93.8149 32.1461 94.5384 31.4112 95.4493 30.8643C96.3602 30.3175 97.4019 29.9244 98.5743 29.6766C99.7467 29.4331 100.967 29.3091 102.227 29.3091C103.077 29.3091 103.835 29.3476 104.493 29.416C105.151 29.4886 105.687 29.5826 106.101 29.6979V29.0955C106.101 28.0018 105.766 27.1259 105.09 26.4637C104.415 25.8015 103.242 25.4725 101.569 25.4725C100.453 25.4725 99.3501 25.5536 98.2648 25.7117C97.7026 25.7929 97.1839 25.8912 96.7002 26.0108C96.0203 26.1732 95.3447 25.7416 95.2357 25.0666L94.7781 22.2339C94.6822 21.6358 95.0658 21.0676 95.6672 20.9223C95.7893 20.8924 95.9157 20.8625 96.042 20.8368C96.613 20.7087 97.2362 20.5933 97.9118 20.4908C98.5874 20.3882 99.2978 20.3028 100.047 20.2301C100.797 20.1575 101.551 20.1233 102.314 20.1233L102.318 20.1191ZM102.846 38.935C103.491 38.935 104.105 38.9222 104.693 38.8923C105.282 38.8624 105.748 38.8197 106.101 38.7641V33.8892C105.835 33.8337 105.439 33.7739 104.911 33.7183C104.384 33.6628 103.9 33.6329 103.46 33.6329C102.846 33.6329 102.266 33.6713 101.721 33.7397C101.176 33.8123 100.701 33.9491 100.291 34.1499C99.8818 34.3507 99.5593 34.6241 99.3239 34.9702C99.0886 35.3162 98.9709 35.7478 98.9709 36.2647C98.9709 37.273 99.3152 37.9694 100.004 38.3582C100.692 38.747 101.638 38.9393 102.846 38.9393V38.935Z" fill="#01E59B" />
                        <path d="M138.767 42.6905C138.179 42.8614 137.503 43.028 136.741 43.1861C135.978 43.3442 135.176 43.4809 134.339 43.5963C133.502 43.7116 132.652 43.8056 131.785 43.8783C130.918 43.9509 130.09 43.9851 129.297 43.9851C127.388 43.9851 125.688 43.7116 124.188 43.1647C122.694 42.6179 121.43 41.836 120.401 40.8106C119.372 39.7895 118.588 38.5505 118.047 37.0978C117.503 35.6452 117.232 34.0131 117.232 32.2016C117.232 30.3901 117.468 28.6982 117.938 27.2156C118.409 25.7331 119.085 24.477 119.965 23.4388C120.846 22.4048 121.922 21.6101 123.199 21.0633C124.476 20.5164 125.936 20.243 127.579 20.243C128.49 20.243 129.305 20.3284 130.024 20.5036C130.743 20.6745 131.471 20.9223 132.204 21.2384V11.9586C132.204 11.3861 132.626 10.9033 133.202 10.8093L137.39 10.1471C138.109 10.0318 138.763 10.5786 138.763 11.2964V42.6905H138.767ZM123.931 31.9025C123.931 33.8892 124.385 35.4828 125.295 36.692C126.206 37.9011 127.553 38.5035 129.344 38.5035C129.933 38.5035 130.473 38.4821 130.974 38.4394C131.471 38.3967 131.885 38.3454 132.208 38.2899V26.5961C131.798 26.3355 131.262 26.1219 130.6 25.951C129.942 25.7801 129.27 25.6904 128.595 25.6904C125.483 25.6904 123.927 27.7625 123.927 31.9025H123.931Z" fill="#01E59B" />
                        <path d="M143.832 32.2443C143.832 30.232 144.146 28.4675 144.778 26.9593C145.41 25.4468 146.238 24.1907 147.266 23.1824C148.295 22.1741 149.476 21.4136 150.81 20.8967C152.144 20.3797 153.516 20.1191 154.924 20.1191C158.21 20.1191 160.808 21.106 162.717 23.0756C164.626 25.0452 165.58 27.9462 165.58 31.7701C165.58 32.1461 165.567 32.5562 165.537 33.0006C165.506 33.4449 165.476 33.8422 165.45 34.1883H150.57C150.718 35.5128 151.346 36.5638 152.462 37.3371C153.577 38.1147 155.072 38.5035 156.951 38.5035C158.154 38.5035 159.335 38.3967 160.494 38.1788C161.074 38.072 161.597 37.9524 162.068 37.8199C162.748 37.6277 163.449 38.0634 163.563 38.747L164.059 41.6865C164.155 42.2419 163.828 42.7931 163.279 42.9725C163.131 43.0238 162.97 43.0708 162.804 43.1221C162.216 43.293 161.562 43.4468 160.847 43.5749C160.128 43.7031 159.357 43.8142 158.537 43.8996C157.714 43.9851 156.894 44.0278 156.07 44.0278C153.987 44.0278 152.174 43.7245 150.635 43.1221C149.093 42.5196 147.82 41.6908 146.804 40.6397C145.793 39.5887 145.044 38.3454 144.56 36.9056C144.076 35.4658 143.832 33.9149 143.832 32.2443ZM159.239 29.7834C159.208 29.2365 159.113 28.7025 158.951 28.1855C158.79 27.6685 158.542 27.2071 158.202 26.8055C157.866 26.4039 157.439 26.0706 156.925 25.8143C156.41 25.5536 155.774 25.4255 155.011 25.4255C154.249 25.4255 153.647 25.5494 153.12 25.7929C152.592 26.0364 152.152 26.3611 151.799 26.7628C151.446 27.1644 151.176 27.6343 150.984 28.1641C150.792 28.6982 150.653 29.2365 150.566 29.7834H159.239Z" fill="#01E59B" />
                        <path d="M178.473 13.5181C178.913 13.5181 179.314 13.7531 179.519 14.1333C179.968 14.9622 180.464 15.9278 181.014 17.0343C181.707 18.4314 182.426 19.9396 183.175 21.5674C183.925 23.1952 184.67 24.853 185.407 26.5534C186.143 28.2496 186.832 29.8475 187.482 31.3428C188.131 29.8475 188.82 28.2496 189.556 26.5534C190.293 24.8572 191.034 23.1952 191.783 21.5674C192.533 19.9439 193.256 18.4314 193.945 17.0343C194.494 15.9278 194.991 14.9579 195.44 14.1333C195.645 13.7531 196.05 13.5181 196.486 13.5181H200.997C201.59 13.5181 202.091 13.9453 202.174 14.5221C202.413 16.2439 202.636 18.1324 202.845 20.1874C203.093 22.6484 203.316 25.2076 203.507 27.8693C203.699 30.5311 203.874 33.1971 204.035 35.8759C204.196 38.5505 204.335 41.0713 204.453 43.4297H197.763C197.676 40.5244 197.558 37.3585 197.41 33.9362C197.262 30.514 197.044 27.0618 196.752 23.5798C196.22 24.7889 195.632 26.1262 194.987 27.5916C194.337 29.0571 193.697 30.5268 193.065 31.9923C192.433 33.4577 191.822 34.8634 191.234 36.2006C190.646 37.5379 190.145 38.6829 189.73 39.6314H184.932C184.518 38.6829 184.021 37.5379 183.428 36.2006C182.835 34.8634 182.23 33.462 181.593 31.9923C180.961 30.5268 180.321 29.0571 179.671 27.5916C179.022 26.1262 178.433 24.7846 177.906 23.5798C177.614 27.0618 177.392 30.514 177.244 33.9362C177.095 37.3585 176.978 40.5244 176.891 43.4297H170.2C170.318 41.0713 170.458 38.5548 170.619 35.8759C170.78 33.2014 170.954 30.5311 171.146 27.8693C171.338 25.2076 171.556 22.6484 171.804 20.1874C172.014 18.1324 172.236 16.2482 172.476 14.5221C172.554 13.9453 173.06 13.5181 173.652 13.5181H178.473Z" fill="white" />
                        <path d="M218.448 20.1191C220.383 20.1191 222 20.3327 223.29 20.7642C224.58 21.1957 225.617 21.8152 226.393 22.6185C227.169 23.426 227.722 24.4044 228.045 25.5536C228.368 26.7029 228.529 27.9847 228.529 29.3946V42.7717C227.587 42.9725 226.284 43.2118 224.611 43.4852C222.937 43.7586 220.915 43.8954 218.535 43.8954C217.04 43.8954 215.68 43.7672 214.464 43.5066C213.248 43.246 212.198 42.823 211.317 42.2334C210.437 41.6438 209.761 40.8747 209.291 39.9262C208.82 38.9778 208.585 37.8114 208.585 36.4314C208.585 35.0513 208.855 33.9875 209.4 33.0647C209.945 32.1461 210.668 31.4112 211.579 30.8643C212.49 30.3175 213.532 29.9244 214.704 29.6766C215.876 29.4331 217.097 29.3091 218.356 29.3091C219.206 29.3091 219.965 29.3476 220.623 29.416C221.281 29.4886 221.817 29.5826 222.231 29.6979V29.0955C222.231 28.0018 221.895 27.1259 221.22 26.4637C220.544 25.8015 219.372 25.4725 217.698 25.4725C216.582 25.4725 215.48 25.5536 214.394 25.7117C213.832 25.7929 213.314 25.8912 212.83 26.0108C212.15 26.1732 211.474 25.7416 211.365 25.0666L210.908 22.2339C210.812 21.6358 211.195 21.0676 211.797 20.9223C211.919 20.8924 212.045 20.8625 212.172 20.8368C212.743 20.7087 213.366 20.5933 214.041 20.4908C214.717 20.3882 215.427 20.3028 216.177 20.2301C216.927 20.1575 217.681 20.1233 218.443 20.1233L218.448 20.1191ZM218.975 38.935C219.62 38.935 220.235 38.9222 220.823 38.8923C221.412 38.8624 221.878 38.8197 222.231 38.7641V33.8892C221.965 33.8337 221.568 33.7739 221.041 33.7183C220.514 33.6628 220.03 33.6329 219.59 33.6329C218.975 33.6329 218.396 33.6713 217.851 33.7397C217.306 33.8123 216.831 33.9491 216.421 34.1499C216.011 34.3507 215.689 34.6241 215.454 34.9702C215.218 35.3162 215.101 35.7478 215.101 36.2647C215.101 37.273 215.445 37.9694 216.133 38.3582C216.822 38.747 217.768 38.9393 218.975 38.9393V38.935Z" fill="white" />
                        <path d="M256 32.0734C256 33.8294 255.782 35.4273 255.338 36.8629C254.897 38.3027 254.252 39.5374 253.402 40.5757C252.553 41.6096 251.494 42.4171 250.234 42.9939C248.97 43.5707 247.519 43.8569 245.876 43.8569C244.965 43.8569 244.115 43.7715 243.321 43.5963C242.528 43.4254 241.766 43.1776 241.033 42.8614V51.4064H234.474V21.4991C235.062 21.3282 235.733 21.1615 236.501 21.0035C237.263 20.8454 238.065 20.7087 238.902 20.5933C239.739 20.478 240.589 20.384 241.456 20.3113C242.323 20.2387 243.152 20.2045 243.945 20.2045C245.854 20.2045 247.553 20.4865 249.053 21.0462C250.548 21.6059 251.812 22.4006 252.84 23.4217C253.869 24.4428 254.653 25.6861 255.194 27.1558C255.739 28.6213 256.009 30.2619 256.009 32.0777L256 32.0734ZM249.31 32.2443C249.31 30.2576 248.857 28.6683 247.946 27.4763C247.035 26.2842 245.684 25.6861 243.897 25.6861C243.308 25.6861 242.768 25.7075 242.267 25.7502C241.766 25.7929 241.356 25.8442 241.033 25.8997V37.508C241.443 37.7686 241.979 37.9823 242.642 38.1532C243.3 38.3241 243.971 38.4138 244.646 38.4138C247.758 38.4138 249.314 36.3587 249.314 32.2443H249.31Z" fill="white" />
                    </g>
                    <defs>
                        <clipPath id="clip0_2323_32514">
                            <rect width="256" height="53" fill="white" />
                        </clipPath>
                    </defs>
                </svg>